<svg width="84" height="36" viewBox="0 0 84 36" fill="none" xmlns="http://www.w3.org/2000/svg">
<path d="M81.4959 35.8811H2.5041C1.12292 35.8811 0 34.7582 0 33.377V2.5041C0 1.12456 1.12292 0 2.5041 0H81.4959C82.8771 0 84 1.12292 84 2.5041V33.377C84 34.7566 82.8771 35.8811 81.4959 35.8811ZM2.5041 1.31906C1.85029 1.31906 1.31743 1.85192 1.31743 2.50573V33.377C1.31743 34.0309 1.85029 34.5637 2.5041 34.5637H81.4959C82.1497 34.5637 82.6826 34.0309 82.6826 33.377V2.5041C82.6826 1.85029 82.1497 1.31743 81.4959 1.31743H2.5041V1.31906Z" fill="#F79420"/>
<path d="M5.65625 25.7429V10.1756C5.65625 7.22202 6.97695 5.4502 10.2427 5.4502C13.5445 5.4502 14.8635 7.22202 14.8635 10.1756V12.4002H11.8053V9.5169C11.8053 8.68329 11.3885 8.23053 10.2411 8.23053C9.12962 8.23053 8.67686 8.68165 8.67686 9.5169V26.4048C8.67686 27.2384 9.12799 27.6912 10.2411 27.6912C11.3885 27.6912 11.8053 27.2401 11.8053 26.4048V23.5215H14.8635V25.7461C14.8635 28.6997 13.5428 30.4715 10.2427 30.4715C6.97531 30.4683 5.65625 28.6964 5.65625 25.7429Z" fill="#1471B9"/>
<path d="M19.311 5.79785H22.8546L26.2594 30.1213H23.2714L22.6814 25.2912H19.4842L18.8942 30.1213H15.9062L19.311 5.79785ZM22.3692 22.5125L21.0828 11.3928L19.7964 22.5125H22.3692Z" fill="#1471B9"/>
<path d="M27.9645 5.79785H33.6985C35.5749 5.79785 36.8253 7.01394 36.8253 8.85605V15.7701C36.8253 17.1251 36.4428 18.2023 34.9832 18.5145C36.7893 19.0359 37.0329 20.0787 37.0329 21.6773V27.1677C37.0329 28.2105 37.2764 29.2174 37.7276 30.1213H34.9472C34.0793 29.0441 33.9747 27.9326 33.9747 25.8126V21.4697C33.9747 20.0444 33.2457 19.5589 32.0982 19.5589H31.0211V30.1229H27.9629V5.79785H27.9645ZM33.0724 16.8129C33.5938 16.8129 33.7671 16.6397 33.7671 16.1183V9.27286C33.7671 8.75144 33.5938 8.57818 33.0724 8.57818H31.0227V16.8129H33.0724Z" fill="#1471B9"/>
<path d="M39.2559 26.2283V23.1701H42.2797V26.4016C42.2797 27.2352 42.7309 27.6879 43.6691 27.6879C44.6073 27.6879 45.0584 27.2368 45.0584 26.4016V23.5183C45.0584 22.4754 44.7462 21.851 44.1545 21.1204L40.5063 16.6385C39.6727 15.5957 39.2559 14.5186 39.2559 13.0949V9.69016C39.2559 7.25798 40.7841 5.4502 43.7034 5.4502C46.6227 5.4502 48.1166 7.25635 48.1166 9.69016V12.7484H45.0928V9.5169C45.0928 8.68329 44.6416 8.23053 43.7034 8.23053C42.7652 8.23053 42.3141 8.68165 42.3141 9.5169V12.4002C42.3141 13.443 42.6263 14.0674 43.218 14.7981L46.8319 19.2799C47.6998 20.3228 48.0823 21.3999 48.0823 22.8236V26.2283C48.0823 28.6605 46.5883 30.4683 43.6691 30.4683C40.7498 30.4683 39.2559 28.6605 39.2559 26.2283Z" fill="#1471B9"/>
<path d="M58.6107 27.4444L63.5094 17.3332C64.969 14.4139 65.1766 13.0589 65.1766 11.5306C65.1766 9.30604 64.7598 8.19457 63.5437 8.19457C62.3619 8.19457 61.8405 9.37633 61.8405 11.5306H58.8166C58.8166 7.0128 61.2145 5.4502 63.5077 5.4502C66.3567 5.4502 68.1988 7.15337 68.1988 11.3917C68.1988 13.5803 67.4698 15.5271 66.1491 18.2371L61.7359 27.3757H68.2332V30.1201H58.6074V27.4444H58.6107Z" fill="#1471B9"/>
<path d="M73.8667 24.2141H68.1328V21.6086L74.0743 5.79785H76.889V21.4697H78.3486V24.2141H76.889V30.1213H73.8651V24.2141H73.8667ZM73.8667 21.4697V13.3379L70.9834 21.4697H73.8667Z" fill="#1471B9"/>
<path d="M53.8308 15.6252L51.584 17.8721L53.8308 20.1189L56.0776 17.8721L53.8308 15.6252Z" fill="#F79438"/>
</svg>
