<svg width="40" height="40" viewBox="0 0 40 40" fill="none" xmlns="http://www.w3.org/2000/svg">
<path d="M19.6653 27.87L19.2867 28.5175L19.2943 28.5219L19.6653 27.87ZM14.0309 23.7024L13.5155 24.2473L13.5221 24.2534L14.0309 23.7024ZM11.3491 19.6403L10.6387 19.8809C10.6406 19.8864 10.6425 19.892 10.6446 19.8975L11.3491 19.6403ZM14.8092 12.2556L14.5899 11.5384L14.5897 11.5384L14.8092 12.2556ZM19.8852 13.068L19.4499 13.6787C19.7102 13.8643 20.0596 13.8644 20.3201 13.679L19.8852 13.068ZM24.9612 12.2556L25.1808 11.5384L25.18 11.5382L24.9612 12.2556ZM28.4298 19.6403L29.1344 19.8975C29.1364 19.892 29.1383 19.8864 29.1402 19.8809L28.4298 19.6403ZM25.748 23.7024L26.2568 24.2534L26.2634 24.2473L25.748 23.7024ZM20.1137 27.87L19.7351 27.2226L19.7321 27.2243L20.1137 27.87ZM19.8937 28L19.5228 28.6518C19.7565 28.7849 20.0437 28.7825 20.2753 28.6457L19.8937 28ZM20.0438 27.2226C18.0592 26.0622 16.2136 24.6969 14.5397 23.1514L13.5221 24.2534C15.2762 25.8731 17.2094 27.3029 19.2867 28.5175L20.0438 27.2226ZM14.5463 23.1575C13.4243 22.0963 12.5725 20.8048 12.0536 19.3832L10.6446 19.8975C11.2446 21.5414 12.2275 23.0289 13.5155 24.2473L14.5463 23.1575ZM12.0595 19.3998C11.1561 16.7318 12.2321 13.8288 15.0288 12.9727L14.5897 11.5384C10.8045 12.6971 9.52857 16.6021 10.6387 19.8809L12.0595 19.3998ZM15.0286 12.9728C16.538 12.5112 18.1846 12.7766 19.4499 13.6787L20.3206 12.4573C18.671 11.2813 16.5397 10.9421 14.5899 11.5384L15.0286 12.9728ZM20.3201 13.679C21.5862 12.7778 23.2326 12.5124 24.7424 12.9729L25.18 11.5382C23.2305 10.9435 21.1003 11.2826 19.4503 12.457L20.3201 13.679ZM24.7417 12.9727C27.5401 13.8293 28.6221 16.7337 27.7194 19.3998L29.1402 19.8809C30.251 16.6002 28.9643 12.6966 25.1808 11.5384L24.7417 12.9727ZM27.7253 19.3832C27.2064 20.8048 26.3546 22.0963 25.2326 23.1575L26.2634 24.2473C27.5515 23.0289 28.5344 21.5414 29.1344 19.8975L27.7253 19.3832ZM25.2392 23.1514C23.5654 24.6969 21.7197 26.0622 19.7351 27.2226L20.4922 28.5175C22.5696 27.3029 24.5027 25.8731 26.2568 24.2534L25.2392 23.1514ZM19.7321 27.2243L19.5121 27.3543L20.2753 28.6457L20.4952 28.5157L19.7321 27.2243ZM20.2646 27.3482L20.0362 27.2182L19.2943 28.5219L19.5228 28.6518L20.2646 27.3482Z" fill="#0071BC"/>
<path fill-rule="evenodd" clip-rule="evenodd" d="M22.6702 15.385C22.7905 14.9886 23.2093 14.7648 23.6057 14.8851C24.8809 15.2721 25.8117 16.3697 25.9285 17.6896C25.965 18.1022 25.6601 18.4662 25.2475 18.5028C24.8349 18.5393 24.4708 18.2344 24.4343 17.8218C24.3741 17.1411 23.8885 16.5385 23.1701 16.3205C22.7737 16.2002 22.5499 15.7814 22.6702 15.385Z" fill="#F7931E"/>
</svg>
