<svg version="1.2" xmlns="http://www.w3.org/2000/svg" viewBox="0 0 13 8" width="13" height="8">
	<title>arrow1-svg</title>
	<defs>
		<linearGradient id="g1" x2="1" gradientUnits="userSpaceOnUse" gradientTransform="matrix(-1.601,7.174,-10.516,-2.347,7.302,.412)">
			<stop offset="0" stop-color="#ef6e0b"/>
			<stop offset="1" stop-color="#ef6e0b"/>
		</linearGradient>
	</defs>
	<style>
		.s0 { fill: url(#g1) } 
	</style>
	<g>
		<path fill-rule="evenodd" class="s0" d="m10.8 0.7q0.1-0.1 0.3-0.2 0.2-0.1 0.4-0.1 0.2 0 0.4 0.1 0.2 0.1 0.3 0.2l0.1 0.1q0.1 0.1 0.2 0.3 0.1 0.2 0.1 0.4 0 0.2-0.1 0.4-0.1 0.2-0.2 0.3l-5.1 5.1q-0.1 0.1-0.3 0.2-0.2 0.1-0.4 0.1-0.2 0-0.4-0.1-0.2-0.1-0.3-0.2l-5.1-5.1q-0.1-0.1-0.2-0.3-0.1-0.2-0.1-0.4 0-0.2 0.1-0.4 0.1-0.2 0.2-0.3l0.1-0.1q0.1-0.1 0.3-0.2 0.2-0.1 0.4-0.1 0.2 0 0.4 0.1 0.2 0.1 0.3 0.2l4.3 4.3z"/>
	</g>
</svg>